<?xml version="1.0" encoding="utf-8"?>
<!-- Generator: Adobe Illustrator 24.0.1, SVG Export Plug-In . SVG Version: 6.00 Build 0)  -->
<svg version="1.1" id="Layer_1" xmlns="http://www.w3.org/2000/svg" xmlns:xlink="http://www.w3.org/1999/xlink" x="0px" y="0px"
	 viewBox="0 0 100 125" style="enable-background:new 0 0 100 125;" xml:space="preserve">
<style type="text/css">
	.st0{fill:none;}
	.st1{font-family:'MyriadPro-Regular';}
	.st2{font-size:65.4008px;}
</style>
<g>
	<path d="M142.1,55c-3.5,0-6.4,2.9-6.4,6.4s2.9,6.4,6.4,6.4s6.4-2.9,6.4-6.4S145.6,55,142.1,55z M142.1,64.9c-1.9,0-3.4-1.5-3.4-3.4
		s1.5-3.5,3.4-3.5c1.9,0,3.4,1.5,3.4,3.4S144,64.9,142.1,64.9z"/>
	<path d="M161.7,55c-3.5,0-6.4,2.9-6.4,6.4s2.9,6.4,6.4,6.4s6.4-2.9,6.4-6.4S165.2,55,161.7,55z M161.7,64.9c-1.9,0-3.4-1.5-3.4-3.4
		s1.5-3.4,3.4-3.4c1.9,0,3.4,1.5,3.4,3.4S163.6,64.9,161.7,64.9z"/>
	<path d="M204.4,64.3v-5.7c0-0.8-0.7-1.5-1.5-1.5h-3.4l4.4-12.1c0.2-0.5,0.1-1-0.2-1.4c-0.3-0.4-0.7-0.6-1.2-0.6h-8.4
		c-0.6,0-1.2,0.4-1.4,1l-3.4,9.4c-9.5-3.7-19.5-5.8-29.8-6.3V33.6c0-0.8-0.7-1.5-1.5-1.5h-6.8v-6.3c0-0.4-0.2-0.8-0.4-1.1l-4.2-4.2
		c-0.3-0.3-0.7-0.4-1.1-0.4h-4.2h-6c-0.8,0-1.5,0.7-1.5,1.5v6c0,0.8,0.7,1.5,1.5,1.5h4.5v4.5V47h-11.3c-8,0-14.5,6.5-14.5,14.5
		S120.5,76,128.5,76h26.7c11.8,0,23.3-2.1,34.1-6.4l3.4,9.4c0.2,0.6,0.8,1,1.4,1h8.4c0.5,0,0.9-0.2,1.2-0.6c0.3-0.4,0.3-0.9,0.2-1.4
		l-4.4-12.1h3.4C203.7,65.8,204.4,65.1,204.4,64.3z M195.2,46h5.2l-3.8,10.5c-1.4-0.7-2.9-1.4-4.5-2L195.2,46z M148.2,26.4v5.7h-5.4
		v-4.5v-4.5h2.1L148.2,26.4z M136.8,26.1v-3h3v3H136.8z M142.8,35.1h6.9h6.8V47h-1.4h-12.3V35.1z M128.5,72.9
		c-6.3,0-11.5-5.1-11.5-11.5S122.2,50,128.5,50h12.8h13.8c14.3,0,28.1,3.2,40.8,9.6v3.7c-2,1-4.1,2-6.3,2.9l0,0
		c-10.9,4.5-22.4,6.7-34.4,6.7H128.5L128.5,72.9z M195.2,76.9l-3.1-8.5c0.7-0.3,1.3-0.6,2-0.9c0.2-0.1,0.5-0.2,0.7-0.3
		c0.4-0.2,0.9-0.4,1.3-0.6c0.2-0.1,0.3-0.2,0.5-0.2l3.8,10.5H195.2L195.2,76.9z M201.4,62.8h-2.5v-2.7h2.5V62.8z"/>
</g>
<rect x="23.7" y="92.3" class="st0" width="54.9" height="10.6"/>
<text transform="matrix(0.8017 0 0 1 9.6382 81.2498)" class="st1 st2">M 6</text>
</svg>
